<svg id="Layer_1" data-name="Layer 1" xmlns="http://www.w3.org/2000/svg" viewBox="0 0 60 51.3"><defs><style>.cls-1{fill:#cb2d6f;}.cls-2{fill:none;}.cls-3{isolation:isolate;font-size:23px;fill:#fff;font-family:Roboto-Bold, Roboto;font-weight:700;}</style></defs><title>Artboard 1</title><path class="cls-1" d="M7.4,8.7,26.7,25.3a4.36,4.36,0,0,0,3.3,1,4.81,4.81,0,0,0,3.3-1L52.6,8.7c1.5-1.3,1.2-2.4-.8-2.4H8.2C6.2,6.3,5.9,7.4,7.4,8.7Z"/><path class="cls-1" d="M54,13.1,32.9,30.5a4.2,4.2,0,0,1-2.9.9,5,5,0,0,1-2.9-.9L6,13.1c-1.6-1.3-2.9-.6-2.9,1.5V43.1A3.79,3.79,0,0,0,6.7,47H53.3a3.72,3.72,0,0,0,3.6-3.9V14.6C56.8,12.5,55.5,11.8,54,13.1Z"/><rect class="cls-2" x="6.9" y="30.2" width="48.3" height="28.5"/><text class="cls-3" transform="translate(7.12 47.4)">EMB</text></svg>