<?xml version="1.0" encoding="utf-8"?>
<!-- Generator: Adobe Illustrator 22.1.0, SVG Export Plug-In . SVG Version: 6.00 Build 0)  -->
<svg version="1.1" id="Layer_1" xmlns="http://www.w3.org/2000/svg" xmlns:xlink="http://www.w3.org/1999/xlink" x="0px" y="0px"
	 viewBox="0 0 60 51.3" style="enable-background:new 0 0 60 51.3;" xml:space="preserve">
<style type="text/css">
	.st0{fill:#CB2D6F;}
	.st1{fill:none;}
	.st2{fill:#FFFFFF;}
	.st3{font-family:'Roboto-Bold';}
	.st4{font-size:23px;}
</style>
<g>
	<g>
		<path class="st0" d="M7.4,8.7l19.3,16.6c0.9,0.8,2.1,1.1,3.3,1c1.2,0.1,2.4-0.3,3.3-1L52.6,8.7c1.5-1.3,1.2-2.4-0.8-2.4H30H8.2
			C6.2,6.3,5.9,7.4,7.4,8.7z"/>
		<path class="st0" d="M54,13.1L32.9,30.5c-0.8,0.6-1.8,1-2.9,0.9c-1,0-2.1-0.3-2.9-0.9L6,13.1c-1.6-1.3-2.9-0.6-2.9,1.5v28.5
			c0,2.1,1.6,3.9,3.6,3.9H30h23.3c2,0,3.6-1.7,3.6-3.9V14.6C56.8,12.5,55.5,11.8,54,13.1z"/>
	</g>
</g>
<rect x="6.9" y="30.2" class="st1" width="48.3" height="28.5"/>
<text transform="matrix(1 0 0 1 7.1182 47.4004)" class="st2 st3 st4">EMB</text>
</svg>
